<svg width="453" height="350" viewBox="0 0 453 350" fill="none" xmlns="http://www.w3.org/2000/svg">
<path d="M414.424 284.086C414.424 143.149 324.691 28.8979 214 28.8979C103.309 28.8979 13.5757 143.149 13.5757 284.086C13.5757 292.787 13.9203 301.386 14.5888 309.863H413.411C414.079 301.386 414.424 292.787 414.424 284.086Z" fill="#00A098" fill-opacity="0.03"/>
<path d="M441.518 0H255.389C249.288 0 244.295 6.173 244.295 13.717V129.549C244.295 137.094 249.288 143.266 255.389 143.266H441.518C447.62 143.266 452.612 137.093 452.612 129.549V13.717C452.612 6.173 447.62 0 441.518 0Z" fill="#00A098"/>
<path d="M445.524 12.4189H251.383V133.265H445.524V12.4189Z" fill="#FCFCFC"/>
<path d="M344.611 107.474H259.395V111.641H344.611V107.474Z" fill="#BDCFFD"/>
<path d="M344.611 114.43H259.395V118.597H344.611V114.43Z" fill="#BDCFFD"/>
<path d="M344.611 121.385H259.395V125.552H344.611V121.385Z" fill="#BDCFFD"/>
<path d="M433.95 107.474H348.734V111.641H433.95V107.474Z" fill="#BDCFFD"/>
<path d="M433.95 114.43H348.734V118.597H433.95V114.43Z" fill="#BDCFFD"/>
<path d="M433.95 121.385H348.734V125.552H433.95V121.385Z" fill="#BDCFFD"/>
<path d="M315.255 56.9717H259.395V100.712H315.255V56.9717Z" fill="#BDCFFD"/>
<path d="M433.951 56.9458H319.635V100.686H433.951V56.9458Z" fill="#BDCFFD"/>
<path d="M334.615 66.4199L337.593 74.5809L344.254 75.8899L339.434 82.2429L340.572 91.2129L334.615 86.9779L328.658 91.2129L329.795 82.2429L324.976 75.8899L331.636 74.5809L334.615 66.4199Z" fill="#FBBC05"/>
<path d="M355.851 66.4199L358.829 74.5809L365.49 75.8899L360.67 82.2429L361.808 91.2129L355.851 86.9779L349.894 91.2129L351.031 82.2429L346.212 75.8899L352.872 74.5809L355.851 66.4199Z" fill="#FBBC05"/>
<path d="M377.087 66.4199L380.065 74.5809L386.726 75.8899L381.907 82.2429L383.044 91.2129L377.087 86.9779L371.13 91.2129L372.267 82.2429L367.448 75.8899L374.109 74.5809L377.087 66.4199Z" fill="#FBBC05"/>
<path d="M398.324 66.4199L401.302 74.5809L407.963 75.8899L403.143 82.2429L404.281 91.2129L398.324 86.9779L392.367 91.2129L393.504 82.2429L388.685 75.8899L395.345 74.5809L398.324 66.4199Z" fill="#FBBC05"/>
<path d="M419.56 66.4199L422.538 74.5809L429.199 75.8899L424.38 82.2429L425.517 91.2129L419.56 86.9779L413.603 91.2129L414.74 82.2429L409.921 75.8899L416.582 74.5809L419.56 66.4199Z" fill="#FBBC05"/>
<path d="M272.254 43.8979V22.0798H285.337V24.4235H274.896V31.7957H284.357V34.1394H274.896V43.8979H272.254ZM289.862 43.8979V22.0798H303.029V24.4235H292.504V31.7957H302.348V34.1394H292.504V41.5542H303.2V43.8979H289.862ZM307.791 43.8979V22.0798H320.959V24.4235H310.434V31.7957H320.277V34.1394H310.434V41.5542H321.13V43.8979H307.791ZM332.454 43.8979H325.721V22.0798H332.752C334.869 22.0798 336.68 22.5166 338.186 23.3901C339.691 24.2566 340.845 25.5031 341.648 27.1295C342.451 28.7488 342.852 30.6877 342.852 32.9462C342.852 35.219 342.447 37.1756 341.637 38.8163C340.828 40.4498 339.649 41.7069 338.1 42.5876C336.552 43.4612 334.67 43.8979 332.454 43.8979ZM328.363 41.5542H332.284C334.088 41.5542 335.583 41.2062 336.769 40.5102C337.955 39.8141 338.839 38.8234 339.421 37.5379C340.004 36.2524 340.295 34.7218 340.295 32.9462C340.295 31.1849 340.007 29.6685 339.432 28.3972C338.857 27.1188 337.997 26.1387 336.854 25.4569C335.71 24.768 334.286 24.4235 332.582 24.4235H328.363V41.5542ZM347.284 43.8979V22.0798H354.911C356.431 22.0798 357.685 22.3426 358.672 22.8681C359.659 23.3866 360.394 24.0862 360.877 24.9668C361.36 25.8404 361.602 26.8099 361.602 27.8752C361.602 28.8127 361.435 29.5869 361.101 30.1977C360.774 30.8085 360.341 31.2914 359.801 31.6465C359.269 32.0016 358.69 32.2644 358.065 32.4349V32.6479C358.733 32.6906 359.404 32.9249 360.078 33.3511C360.753 33.7772 361.318 34.388 361.772 35.1835C362.227 35.9789 362.454 36.9519 362.454 38.1025C362.454 39.1962 362.206 40.1799 361.708 41.0535C361.211 41.9271 360.426 42.6195 359.354 43.1309C358.282 43.6423 356.886 43.8979 355.167 43.8979H347.284ZM349.926 41.5542H355.167C356.893 41.5542 358.118 41.2204 358.843 40.5528C359.574 39.8781 359.94 39.0613 359.94 38.1025C359.94 37.3639 359.752 36.682 359.375 36.057C358.999 35.4249 358.463 34.9207 357.767 34.5443C357.071 34.1607 356.247 33.969 355.295 33.969H349.926V41.5542ZM349.926 31.6678H354.826C355.622 31.6678 356.339 31.5116 356.978 31.1991C357.625 30.8866 358.136 30.4462 358.512 29.8781C358.896 29.3099 359.088 28.6423 359.088 27.8752C359.088 26.9164 358.754 26.1032 358.086 25.4356C357.419 24.7609 356.36 24.4235 354.911 24.4235H349.926V31.6678ZM367.69 43.8979H364.92L372.932 22.0798H375.659L383.67 43.8979H380.9L374.381 25.5315H374.21L367.69 43.8979ZM368.713 35.3752H379.878V37.719H368.713V35.3752ZM403.6 28.8979H400.958C400.802 28.138 400.528 27.4704 400.138 26.8951C399.754 26.3198 399.286 25.8369 398.732 25.4462C398.185 25.0485 397.578 24.7502 396.91 24.5514C396.242 24.3525 395.546 24.2531 394.822 24.2531C393.501 24.2531 392.304 24.5869 391.232 25.2545C390.166 25.9221 389.318 26.9058 388.685 28.2055C388.06 29.5052 387.748 31.0997 387.748 32.9889C387.748 34.8781 388.06 36.4725 388.685 37.7722C389.318 39.072 390.166 40.0556 391.232 40.7232C392.304 41.3908 393.501 41.7247 394.822 41.7247C395.546 41.7247 396.242 41.6252 396.91 41.4264C397.578 41.2275 398.185 40.9328 398.732 40.5421C399.286 40.1444 399.754 39.6579 400.138 39.0826C400.528 38.5002 400.802 37.8326 400.958 37.0798H403.6C403.401 38.1948 403.039 39.1927 402.514 40.0734C401.988 40.9541 401.335 41.7033 400.553 42.3212C399.772 42.932 398.895 43.3972 397.922 43.7168C396.956 44.0364 395.923 44.1962 394.822 44.1962C392.961 44.1962 391.306 43.7417 389.857 42.8326C388.408 41.9235 387.269 40.6309 386.438 38.9548C385.607 37.2786 385.191 35.29 385.191 32.9889C385.191 30.6877 385.607 28.6991 386.438 27.0229C387.269 25.3468 388.408 24.0542 389.857 23.1451C391.306 22.236 392.961 21.7815 394.822 21.7815C395.923 21.7815 396.956 21.9413 397.922 22.2609C398.895 22.5805 399.772 23.0492 400.553 23.6671C401.335 24.2779 401.988 25.0237 402.514 25.9043C403.039 26.7779 403.401 27.7758 403.6 28.8979ZM407.87 43.8979V22.0798H410.512V32.9036H410.767L420.568 22.0798H424.02L414.858 31.9235L424.02 43.8979H420.824L413.239 33.7559L410.512 36.8241V43.8979H407.87Z" fill="black"/>
<path d="M411.99 349.402H14.7072C6.63251 349.402 0.0871582 340.551 0.0871582 329.632C0.0871582 318.714 6.63251 309.862 14.7072 309.862H411.99C420.063 309.862 426.61 318.713 426.61 329.632C426.609 340.551 420.063 349.402 411.99 349.402Z" fill="#00A098" fill-opacity="0.7"/>
<path d="M426.522 334.293V324.972H213.261H0V334.293H426.522Z" fill="#BDCFFD"/>
<path d="M24.9192 309.863H67.4429C67.7232 309.863 67.9502 309.556 67.9502 309.177V306.213C67.9502 305.834 67.7232 305.527 67.4429 305.527H24.9192C24.6389 305.527 24.4119 305.834 24.4119 306.213V309.177C24.4119 309.556 24.6389 309.863 24.9192 309.863Z" fill="#170C86"/>
<path d="M26.4426 308.5H29.9523C30.2037 308.5 30.4071 308.224 30.4071 307.885V307.505C30.4071 307.165 30.2037 306.89 29.9523 306.89H26.4426C26.1912 306.89 25.9878 307.165 25.9878 307.505V307.885C25.9878 308.225 26.1912 308.5 26.4426 308.5Z" fill="#FCFCFC"/>
<path d="M32.244 308.5H33.3237C33.5832 308.5 33.794 308.215 33.794 307.864V307.526C33.794 307.175 33.5832 306.89 33.3237 306.89H32.244C31.9844 306.89 31.7737 307.175 31.7737 307.526V307.864C31.7737 308.215 31.9844 308.5 32.244 308.5Z" fill="#FCFCFC"/>
<path d="M170.29 226.525C169.686 225.246 168.715 224.25 167.534 223.687L136.824 209.064L120.077 208.982L103.33 209.064L73.1358 223.577C71.8086 224.215 70.7196 225.348 70.042 226.787C67.8455 231.455 56.241 270.755 49.5627 293.609C47.215 301.645 52.5069 309.918 59.9887 309.918H179.045C186.425 309.918 191.702 301.849 189.544 293.866C183.339 270.927 172.414 231.023 170.29 226.525Z" fill="#029E96"/>
<path d="M141.836 211.445L136.828 209.061H136.821C132.508 214.101 125.809 217.286 120.645 217.197C111.188 217.035 103.423 209.144 103.342 209.061H103.334L98.8743 211.204C103.062 214.911 111.46 221.093 121.074 221.273C127.559 221.395 135.716 217.63 141.836 211.445Z" fill="#029E96"/>
<path d="M123.191 220.263H117.911V240.49H123.191V220.263Z" fill="#029E96"/>
<path d="M120.551 224.108C121.2 224.108 121.726 223.57 121.726 222.906C121.726 222.242 121.2 221.704 120.551 221.704C119.903 221.704 119.377 222.242 119.377 222.906C119.377 223.57 119.903 224.108 120.551 224.108Z" fill="#029E96"/>
<path d="M120.551 228.875C121.2 228.875 121.726 228.337 121.726 227.673C121.726 227.009 121.2 226.471 120.551 226.471C119.903 226.471 119.377 227.009 119.377 227.673C119.377 228.337 119.903 228.875 120.551 228.875Z" fill="#029E96"/>
<path d="M120.551 233.642C121.2 233.642 121.726 233.104 121.726 232.44C121.726 231.776 121.2 231.238 120.551 231.238C119.903 231.238 119.377 231.776 119.377 232.44C119.377 233.104 119.903 233.642 120.551 233.642Z" fill="#029E96"/>
<path d="M120.551 238.409C121.2 238.409 121.726 237.871 121.726 237.207C121.726 236.543 121.2 236.005 120.551 236.005C119.903 236.005 119.377 236.543 119.377 237.207C119.377 237.871 119.903 238.409 120.551 238.409Z" fill="#029E96"/>
<path d="M98.8843 167.164C97.5292 170.582 93.7242 172.228 90.3854 170.841C87.0475 169.454 85.439 165.558 86.7941 162.142C88.1492 158.725 91.9543 157.078 95.2922 158.465C98.6309 159.851 100.239 163.747 98.8843 167.164Z" fill="#FF8E89"/>
<path d="M154.055 164.854C152.7 168.271 148.896 169.917 145.557 168.531C142.218 167.144 140.61 163.249 141.966 159.831C143.321 156.414 147.126 154.768 150.464 156.154C153.802 157.541 155.41 161.436 154.055 164.854Z" fill="#FF8E89"/>
<path d="M145.849 151.154C149.165 188.536 129.851 196.388 122.864 198C121.539 198.306 120.176 198.423 118.824 198.291C87.6001 195.236 94.4685 148.207 94.4685 148.207C94.4685 148.207 97.5918 128.569 121.252 129.709C121.252 129.709 143.94 129.632 145.849 151.154Z" fill="#FFB1A5"/>
<path d="M120.436 168.891L118.862 174.855L122.418 174.857" stroke="#FF8E89" stroke-width="0.75" stroke-miterlimit="10"/>
<path d="M140.335 176.575C140.335 179.587 137.95 182.028 135.009 182.028C132.067 182.028 129.682 179.587 129.682 176.575C129.682 173.564 132.067 171.123 135.009 171.123C137.951 171.123 140.335 173.564 140.335 176.575Z" fill="#FF8E89"/>
<path d="M110.405 176.575C110.405 179.587 108.02 182.028 105.079 182.028C102.137 182.028 99.752 179.587 99.752 176.575C99.752 173.564 102.137 171.123 105.079 171.123C108.02 171.123 110.405 173.564 110.405 176.575Z" fill="#FF8E89"/>
<path d="M110.731 167.107C110.731 167.962 110.054 168.655 109.218 168.655C108.383 168.655 107.705 167.962 107.705 167.107C107.705 166.251 108.383 165.558 109.218 165.558C110.054 165.557 110.731 166.25 110.731 167.107Z" fill="black"/>
<path d="M133.375 167.052C133.375 167.908 132.697 168.601 131.862 168.601C131.026 168.601 130.349 167.907 130.349 167.052C130.349 166.197 131.026 165.503 131.862 165.503C132.697 165.503 133.375 166.197 133.375 167.052Z" fill="black"/>
<path d="M102.835 160.78L115.183 160.503C113.655 158.866 111.453 157.918 108.952 157.975C106.475 158.03 104.277 159.12 102.82 160.797" fill="black"/>
<path d="M138.198 160.554L125.847 160.598C127.334 158.922 129.511 157.917 132.014 157.908C134.492 157.899 136.715 158.933 138.213 160.57" fill="black"/>
<path d="M125.847 182.061C124.68 184.623 122.26 186.376 119.476 186.358C116.71 186.34 114.326 184.58 113.182 182.031L125.847 182.061Z" fill="white"/>
<path opacity="0.67" d="M129.259 147.134C129.032 147.104 128.672 147.046 128.448 147.002C123.205 145.985 114.459 142.592 109.811 137.965C106.232 150.609 96.0202 157.653 93.8186 158.778C93.8178 159.41 93.9842 159.763 93.9977 160.432C96.517 159.128 106.77 153.827 110.298 141.364C114.946 145.991 123.101 148.001 128.345 149.018C128.569 149.062 128.929 149.12 129.156 149.15C131.075 149.401 143.128 152.373 146.139 166.069C146.195 165.465 146.197 164.822 146.236 164.194C143.287 150.353 131.186 147.386 129.259 147.134Z" fill="#FF8E89"/>
<path d="M147.198 147.874C147.283 143.85 147.502 139.595 146.154 135.742C144.582 131.245 141.775 126.575 137.917 123.778C135.332 121.904 132.288 120.854 129.26 120.005C124.786 118.752 116.243 118.256 111.948 121.022C109.67 122.49 107.961 124.886 107.114 127.551C105.857 127.544 104.599 127.675 103.372 127.95C98.4288 129.061 94.2731 132.352 92.1003 137.045C90.539 140.416 90.0076 144.497 90.9285 148.134C91.7395 151.335 92.6038 154.525 93.4385 157.72C93.5525 158.159 93.6674 158.597 93.7815 159.036C93.7815 159.036 105.976 153.488 110.065 139.913C113.804 152.692 136.096 150.8 136.096 150.8C121.922 148.721 113.711 143.444 111.17 140.318C115.819 144.336 122.966 146.741 127.782 147.675C128.003 147.718 128.357 147.776 128.581 147.805C130.478 148.054 143.219 150.631 146.111 164.275C146.585 162.485 146.568 160.612 146.525 158.773C146.482 156.924 146.517 155.071 146.655 153.225C146.789 151.438 147.16 149.671 147.198 147.874Z" fill="black"/>
<path d="M90.2036 137.965C90.2036 137.965 96.0202 127.238 107.115 127.553C107.115 127.553 95.6823 124.286 90.2036 137.965Z" fill="black"/>
<path d="M103.329 188.013V208.982V209.057C103.329 209.057 111.133 217.036 120.64 217.201C125.807 217.29 132.51 214.102 136.823 209.057V188.013H103.329Z" fill="#FFB1A5"/>
<path d="M136.548 189.705C136.33 189.941 136.111 190.174 135.891 190.398C135.767 190.524 135.642 190.645 135.517 190.767C135.3 190.979 135.083 191.188 134.865 191.389C134.734 191.509 134.602 191.623 134.471 191.739C134.258 191.928 134.044 192.114 133.829 192.292C133.691 192.406 133.553 192.516 133.414 192.626C133.206 192.791 132.998 192.956 132.79 193.112C132.645 193.221 132.499 193.324 132.354 193.428C132.153 193.573 131.953 193.718 131.753 193.853C131.601 193.957 131.449 194.053 131.298 194.151C131.106 194.276 130.915 194.401 130.725 194.519C130.563 194.618 130.403 194.711 130.243 194.805C130.066 194.909 129.889 195.014 129.714 195.112C129.54 195.209 129.369 195.298 129.198 195.39C129.039 195.473 128.879 195.561 128.722 195.64C128.535 195.735 128.351 195.821 128.166 195.908C128.03 195.973 127.893 196.042 127.757 196.103C127.552 196.197 127.352 196.282 127.152 196.368C127.043 196.414 126.932 196.464 126.825 196.509C126.598 196.602 126.378 196.687 126.158 196.77C126.082 196.798 126.004 196.831 125.93 196.858C125.667 196.956 125.412 197.044 125.162 197.128C125.136 197.137 125.107 197.148 125.081 197.156C124.243 197.435 123.483 197.641 122.83 197.791C121.836 198.02 120.821 198.143 119.805 198.135C119.466 198.132 119.126 198.115 118.787 198.081C118.246 198.028 117.719 197.958 117.201 197.879C117.157 197.872 117.112 197.864 117.068 197.857C116.561 197.777 116.066 197.684 115.58 197.581C115.567 197.578 115.552 197.575 115.539 197.572C112.708 196.963 110.235 195.955 108.079 194.635C108.043 194.612 108.006 194.591 107.97 194.569C107.521 194.29 107.085 194 106.662 193.695C106.654 193.688 106.645 193.684 106.636 193.677C106.621 193.666 106.607 193.653 106.592 193.642C105.399 192.772 104.315 191.798 103.329 190.743V193.515C104.315 194.571 105.399 195.544 106.592 196.414C106.607 196.426 106.621 196.439 106.636 196.45C106.645 196.456 106.654 196.461 106.662 196.467C107.084 196.772 107.521 197.062 107.97 197.341C108.006 197.363 108.043 197.384 108.079 197.405C110.235 198.727 112.708 199.734 115.539 200.343C115.552 200.346 115.566 200.349 115.58 200.352C116.065 200.456 116.561 200.548 117.068 200.628C117.112 200.635 117.156 200.644 117.201 200.65C117.718 200.729 118.246 200.798 118.787 200.851C119.126 200.885 119.466 200.902 119.805 200.905C120.821 200.913 121.837 200.79 122.83 200.561C123.483 200.411 124.243 200.204 125.081 199.926C125.107 199.918 125.136 199.907 125.162 199.898C125.412 199.814 125.667 199.725 125.93 199.628C126.005 199.6 126.083 199.568 126.158 199.54C126.378 199.456 126.598 199.372 126.825 199.278C126.932 199.234 127.043 199.184 127.152 199.138C127.352 199.052 127.552 198.967 127.757 198.873C127.892 198.812 128.029 198.743 128.166 198.678C128.351 198.59 128.535 198.504 128.722 198.409C128.879 198.329 129.039 198.243 129.198 198.159C129.369 198.068 129.54 197.979 129.714 197.881C129.889 197.783 130.066 197.678 130.243 197.574C130.403 197.48 130.563 197.387 130.725 197.288C130.915 197.17 131.107 197.045 131.298 196.92C131.45 196.822 131.601 196.725 131.753 196.622C131.953 196.486 132.153 196.341 132.354 196.196C132.499 196.092 132.644 195.989 132.79 195.88C132.998 195.724 133.206 195.559 133.414 195.393C133.553 195.283 133.691 195.174 133.829 195.059C134.044 194.882 134.257 194.695 134.471 194.507C134.602 194.391 134.734 194.277 134.865 194.156C135.084 193.957 135.3 193.747 135.517 193.535C135.642 193.413 135.767 193.292 135.891 193.165C136.112 192.942 136.331 192.709 136.548 192.473C136.64 192.373 136.731 192.272 136.823 192.171V189.399C136.732 189.504 136.64 189.605 136.548 189.705Z" fill="#FF8E89"/>
<path d="M152.63 240.852H118.238H83.8469C79.5134 240.852 76 244.961 76 250.029L78.1172 310.281H158.36L160.477 250.029C160.477 244.961 156.963 240.852 152.63 240.852Z" fill="#332E30" fill-opacity="0.7"/>
<path d="M87.0149 246.821H155.798C157.504 246.821 159.078 247.465 160.365 248.546C159.757 244.184 156.531 240.852 152.63 240.852H83.8469C79.5134 240.852 76 244.961 76 250.029L78.1172 310.281H81.0752L79.168 255.998C79.168 250.929 82.6814 246.821 87.0149 246.821Z" fill="#332E30" fill-opacity="0.7"/>
<path d="M123.86 269.427C123.86 272.817 121.51 275.566 118.61 275.566C115.71 275.566 113.36 272.817 113.36 269.427C113.36 266.036 115.71 263.287 118.61 263.287C121.509 263.286 123.86 266.036 123.86 269.427Z" fill="white"/>
<path d="M272.612 233.026H251.227V210.302H272.612V233.026ZM252.297 231.889H271.541V211.44H252.297V231.889Z" fill="#170C86"/>
<path d="M259.296 227.537C259.292 227.537 259.289 227.537 259.285 227.537C259.123 227.533 258.972 227.453 258.873 227.317L254.998 222.013C254.816 221.765 254.859 221.407 255.092 221.215C255.326 221.022 255.662 221.067 255.843 221.315L259.312 226.064L268.356 214.677C268.546 214.437 268.884 214.407 269.111 214.609C269.337 214.812 269.365 215.171 269.175 215.41L259.705 227.333C259.603 227.463 259.453 227.537 259.296 227.537Z" fill="#170C86"/>
<path d="M211.091 143.135H192.085V117.434H211.091V143.135ZM193.036 141.849H210.14V118.721H193.036V141.849Z" fill="#C60662"/>
<path d="M199.256 136.927C199.253 136.927 199.25 136.927 199.247 136.927C199.103 136.923 198.969 136.832 198.881 136.678L195.437 130.679C195.276 130.398 195.314 129.994 195.521 129.776C195.728 129.558 196.028 129.609 196.188 129.89L199.271 135.261L207.309 122.383C207.478 122.111 207.778 122.077 207.979 122.306C208.18 122.535 208.206 122.941 208.036 123.212L199.619 136.698C199.529 136.843 199.396 136.927 199.256 136.927Z" fill="#C60662"/>
<path d="M392.029 237.089H373.612V217.898H392.029V237.089ZM374.535 236.128H391.108V218.858H374.535V236.128Z" fill="#FC7A6D"/>
<path d="M380.561 232.453C380.558 232.453 380.554 232.453 380.551 232.453C380.412 232.45 380.281 232.382 380.196 232.268L376.859 227.789C376.703 227.579 376.739 227.278 376.941 227.115C377.141 226.952 377.432 226.99 377.588 227.2L380.575 231.211L388.363 221.595C388.528 221.392 388.818 221.367 389.013 221.538C389.208 221.709 389.232 222.012 389.068 222.215L380.912 232.285C380.825 232.39 380.697 232.453 380.561 232.453Z" fill="#FC7A6D"/>
<path d="M336.731 274.669L348.916 279.084L339.996 291.146L336.731 274.669Z" fill="#FCFCFC"/>
<path d="M338.175 279.17H380.144C386.53 279.17 391.707 272.17 391.707 263.534C391.707 254.899 386.53 247.898 380.144 247.898H338.175C331.789 247.898 326.612 254.898 326.612 263.534C326.612 272.17 331.789 279.17 338.175 279.17Z" fill="#FCFCFC"/>
<path d="M341.851 263.535C341.851 266.423 340.12 268.763 337.985 268.763C335.85 268.763 334.119 266.422 334.119 263.535C334.119 260.648 335.85 258.307 337.985 258.307C340.12 258.307 341.851 260.647 341.851 263.535Z" fill="#FFAFA9"/>
<path d="M355.967 263.535C355.967 266.423 354.236 268.763 352.101 268.763C349.966 268.763 348.235 266.422 348.235 263.535C348.235 260.648 349.966 258.307 352.101 258.307C354.237 258.306 355.967 260.647 355.967 263.535Z" fill="#FFAFA9"/>
<path d="M370.084 263.535C370.084 266.423 368.353 268.763 366.218 268.763C364.083 268.763 362.352 266.422 362.352 263.535C362.352 260.648 364.083 258.307 366.218 258.307C368.353 258.307 370.084 260.647 370.084 263.535Z" fill="#FFAFA9"/>
<path d="M384.2 263.535C384.2 266.423 382.469 268.763 380.334 268.763C378.198 268.763 376.468 266.422 376.468 263.535C376.468 260.648 378.199 258.307 380.334 258.307C382.47 258.306 384.2 260.647 384.2 263.535Z" fill="#FFAFA9"/>
<path d="M183.774 195.631L195.958 200.046L187.039 212.108L183.774 195.631Z" fill="white"/>
<path d="M185.218 200.133H227.187C233.572 200.133 238.75 193.133 238.75 184.497C238.75 175.862 233.573 168.861 227.187 168.861H185.218C178.832 168.861 173.655 175.862 173.655 184.497C173.655 193.133 178.831 200.133 185.218 200.133Z" fill="white"/>
<path d="M188.894 184.78C188.894 187.668 187.163 190.008 185.028 190.008C182.893 190.008 181.162 187.667 181.162 184.78C181.162 181.893 182.893 179.552 185.028 179.552C187.163 179.552 188.894 181.893 188.894 184.78Z" fill="#BDCFFD"/>
<path d="M203.01 184.78C203.01 187.668 201.279 190.008 199.144 190.008C197.009 190.008 195.278 187.667 195.278 184.78C195.278 181.893 197.009 179.552 199.144 179.552C201.279 179.552 203.01 181.893 203.01 184.78Z" fill="#BDCFFD"/>
<path d="M217.127 184.78C217.127 187.668 215.396 190.008 213.261 190.008C211.125 190.008 209.395 187.667 209.395 184.78C209.395 181.893 211.126 179.552 213.261 179.552C215.396 179.552 217.127 181.893 217.127 184.78Z" fill="#BDCFFD"/>
<path d="M231.243 184.78C231.243 187.668 229.512 190.008 227.377 190.008C225.242 190.008 223.511 187.667 223.511 184.78C223.511 181.893 225.242 179.552 227.377 179.552C229.512 179.552 231.243 181.893 231.243 184.78Z" fill="#BDCFFD"/>
<path d="M271.416 283.089L257.497 288.133L267.686 301.913L271.416 283.089Z" fill="#91B3FA"/>
<path d="M275.085 288.232H216.503C212.145 288.232 208.612 283.455 208.612 277.562V265.568C208.612 259.675 212.145 254.898 216.503 254.898H275.085C279.443 254.898 282.975 259.675 282.975 265.568V277.562C282.975 283.455 279.443 288.232 275.085 288.232Z" fill="#91B3FA"/>
<path d="M251.049 262.574H214.832V267.092H251.049V262.574Z" fill="#FCFCFC"/>
<path d="M251.049 269.306H214.832V273.824H251.049V269.306Z" fill="#FCFCFC"/>
<path d="M251.049 276.56H214.832V281.078H251.049V276.56Z" fill="#FCFCFC"/>
<path d="M276.166 274.397C276.169 273.651 275.851 273.009 275.39 272.693C275.854 272.385 276.178 271.748 276.181 271.002C276.185 269.951 275.559 269.094 274.782 269.087C274.703 269.086 274.553 269.085 274.553 269.085L271.128 269.161C271.128 269.161 271.869 265.051 271.612 262.837C271.355 260.623 269.153 259.628 269.104 262.097C269.056 264.566 268.824 265.387 267.407 267.537C266.481 268.942 265.978 270.043 265.742 270.637C265.624 270.933 265.565 271.264 265.564 271.601L265.524 280.95C265.521 281.461 265.826 281.878 266.205 281.881L274.498 281.946C274.498 281.946 274.648 281.947 274.727 281.948C275.504 281.954 276.204 281.19 276.146 280.141C276.099 279.283 275.323 278.951 275.323 278.951C275.323 278.951 276.275 278.813 276.28 277.569C276.285 276.412 275.753 276.124 275.376 276.087C275.839 275.78 276.163 275.144 276.166 274.397Z" fill="#FCFCFC"/>
<path d="M263.624 269.344L260.631 269.321C260.141 269.317 259.741 269.852 259.739 270.514L259.694 281.095C259.691 281.758 260.086 282.298 260.576 282.302L263.569 282.325C264.059 282.329 264.459 281.795 264.461 281.132L264.506 270.551C264.509 269.889 264.114 269.348 263.624 269.344Z" fill="#FCFCFC"/>
<path d="M323.171 188.089L337.091 193.132L326.901 206.912L323.171 188.089Z" fill="#00A098" fill-opacity="0.7"/>
<path d="M319.503 193.232H378.085C382.443 193.232 385.975 188.455 385.975 182.562V170.568C385.975 164.675 382.443 159.898 378.085 159.898H319.503C315.145 159.898 311.612 164.675 311.612 170.568V182.562C311.612 188.455 315.145 193.232 319.503 193.232Z" fill="#00A098" fill-opacity="0.7"/>
<path d="M344.394 167.794H318.07V172.312H344.394V167.794Z" fill="#FCFCFC"/>
<path d="M344.394 174.526H318.07V179.044H344.394V174.526Z" fill="#FCFCFC"/>
<path d="M344.394 181.78H318.07V186.298H344.394V181.78Z" fill="#FCFCFC"/>
<path d="M358.839 183.985C358.089 183.985 357.414 183.836 356.813 183.538C356.212 183.239 355.731 182.83 355.368 182.31C355.006 181.791 354.808 181.198 354.774 180.533H356.308C356.368 181.126 356.636 181.616 357.113 182.004C357.595 182.387 358.17 182.579 358.839 182.579C359.376 182.579 359.854 182.453 360.271 182.202C360.693 181.95 361.023 181.605 361.262 181.166C361.505 180.723 361.626 180.222 361.626 179.664C361.626 179.093 361.501 178.584 361.249 178.136C361.002 177.685 360.661 177.329 360.226 177.069C359.792 176.809 359.295 176.677 358.737 176.673C358.336 176.668 357.925 176.73 357.503 176.858C357.082 176.982 356.734 177.141 356.461 177.337L354.979 177.158L355.771 170.715H362.572V172.121H357.101L356.64 175.982H356.717C356.986 175.769 357.322 175.592 357.727 175.452C358.132 175.311 358.554 175.241 358.993 175.241C359.794 175.241 360.508 175.433 361.134 175.816C361.765 176.195 362.259 176.715 362.617 177.376C362.979 178.036 363.16 178.791 363.16 179.639C363.16 180.474 362.973 181.22 362.598 181.876C362.227 182.528 361.716 183.043 361.064 183.423C360.412 183.798 359.67 183.985 358.839 183.985ZM370.353 170.102L366.134 185.775H364.754L368.972 170.102H370.353ZM376.207 183.985C375.457 183.985 374.781 183.836 374.18 183.538C373.579 183.239 373.098 182.83 372.736 182.31C372.373 181.791 372.175 181.198 372.141 180.533H373.675C373.735 181.126 374.003 181.616 374.481 182.004C374.962 182.387 375.537 182.579 376.207 182.579C376.743 182.579 377.221 182.453 377.638 182.202C378.06 181.95 378.39 181.605 378.629 181.166C378.872 180.723 378.993 180.222 378.993 179.664C378.993 179.093 378.868 178.584 378.616 178.136C378.369 177.685 378.028 177.329 377.594 177.069C377.159 176.809 376.662 176.677 376.104 176.673C375.704 176.668 375.292 176.73 374.871 176.858C374.449 176.982 374.101 177.141 373.829 177.337L372.346 177.158L373.138 170.715H379.939V172.121H374.468L374.008 175.982H374.084C374.353 175.769 374.689 175.592 375.094 175.452C375.499 175.311 375.921 175.241 376.36 175.241C377.161 175.241 377.875 175.433 378.501 175.816C379.132 176.195 379.626 176.715 379.984 177.376C380.346 178.036 380.528 178.791 380.528 179.639C380.528 180.474 380.34 181.22 379.965 181.876C379.594 182.528 379.083 183.043 378.431 183.423C377.779 183.798 377.037 183.985 376.207 183.985Z" fill="white"/>
<path d="M243.424 86.5249L229.505 91.5689L239.694 105.349L243.424 86.5249Z" fill="#FC7A6D"/>
<path d="M247.093 91.668H188.511C184.153 91.668 180.62 86.891 180.62 80.998V69.004C180.62 63.111 184.153 58.334 188.511 58.334H247.093C251.451 58.334 254.983 63.111 254.983 69.004V80.998C254.983 86.891 251.451 91.668 247.093 91.668Z" fill="#FC7A6D"/>
<path d="M190.703 68.0352L192.376 72.6222L196.119 73.3572L193.411 76.9272L194.051 81.9682L190.703 79.5882L187.355 81.9682L187.994 76.9272L185.286 73.3572L189.029 72.6222L190.703 68.0352Z" fill="#FCFCFC"/>
<path d="M204.125 68.0352L205.798 72.6222L209.541 73.3572L206.833 76.9272L207.472 81.9682L204.125 79.5882L200.777 81.9682L201.417 76.9272L198.708 73.3572L202.451 72.6222L204.125 68.0352Z" fill="#FCFCFC"/>
<path d="M217.547 68.0352L219.221 72.6222L222.964 73.3572L220.256 76.9272L220.894 81.9682L217.547 79.5882L214.199 81.9682L214.839 76.9272L212.131 73.3572L215.873 72.6222L217.547 68.0352Z" fill="#FCFCFC"/>
<path d="M230.969 68.0352L232.643 72.6222L236.385 73.3572L233.677 76.9272L234.317 81.9682L230.969 79.5882L227.622 81.9682L228.261 76.9272L225.552 73.3572L229.295 72.6222L230.969 68.0352Z" fill="#FCFCFC"/>
<path d="M244.392 68.0352L246.066 72.6222L249.809 73.3572L247.1 76.9272L247.739 81.9682L244.392 79.5882L241.044 81.9682L241.684 76.9272L238.975 73.3572L242.717 72.6222L244.392 68.0352Z" fill="#FCFCFC"/>
</svg>
